2.5Hzlow3min_grf.mot
version=1
nRows=27
nColumns 19
inDegrees=yes
endheader
time	1_ground_force_vx	1_ground_force_vy	1_ground_force_vz	1_ground_force_px	1_ground_force_py	1_ground_force_pz	1_ground_torque_x	1_ground_torque_y	1_ground_torque_z	2_ground_force_vx	2_ground_force_vy	2_ground_force_vz	2_ground_force_px	2_ground_force_py	2_ground_force_pz	2_ground_torque_x	2_ground_torque_y	2_ground_torque_z
            1.253500	           -5.825065	         1309.270526	         -120.937526	           -0.248578	            0.006235	           -0.408714	           -0.044300	            9.957154	           -0.919744	           35.192105	         1416.302199	          144.179473	           -0.274217	            0.005484	           -0.695047	           -0.271650	          -10.932520	           -1.112930
            1.254000	           -9.218687	         1304.226045	         -121.822017	           -0.247998	            0.006235	           -0.408667	           -0.069601	            9.846874	           -0.919753	           30.578839	         1409.648444	          146.316469	           -0.273523	            0.005487	           -0.695166	           -0.231357	          -10.665289	           -1.107019
            1.254500	          -12.338342	         1299.543979	         -123.118327	           -0.247620	            0.006234	           -0.408559	           -0.091917	            9.681205	           -0.917194	           26.288931	         1404.284173	          148.598731	           -0.272758	            0.005491	           -0.695525	           -0.198080	          -10.580882	           -1.119649
            1.255000	          -15.136886	         1295.582570	         -124.274801	           -0.247140	            0.006233	           -0.408329	           -0.110403	            9.449475	           -0.906412	           22.281828	         1398.371021	          150.221895	           -0.272005	            0.005495	           -0.695781	           -0.167519	          -10.513242	           -1.129399
            1.255500	          -18.209966	         1289.998171	         -125.345815	           -0.246574	            0.006234	           -0.408374	           -0.128761	            9.121445	           -0.886307	           18.321555	         1392.458205	          151.798134	           -0.271399	            0.005498	           -0.695998	           -0.136796	          -10.396614	           -1.133382
            1.256000	          -20.732426	         1286.035046	         -126.090257	           -0.246145	            0.006233	           -0.408214	           -0.145180	            9.005524	           -0.882953	           13.803610	         1385.255318	          153.088428	           -0.270682	            0.005501	           -0.696111	           -0.099718	          -10.007169	           -1.105920
            1.256500	          -23.301348	         1281.712499	         -127.111274	           -0.245661	            0.006233	           -0.408075	           -0.161070	            8.859806	           -0.878654	            9.979151	         1380.632725	          154.481463	           -0.270055	            0.005504	           -0.696475	           -0.070577	           -9.764466	           -1.092564
            1.257000	          -26.190472	         1276.667967	         -127.905311	           -0.245233	            0.006233	           -0.408134	           -0.179458	            8.747752	           -0.876409	            6.252838	         1374.723099	          155.400593	           -0.269349	            0.005507	           -0.696577	           -0.043424	           -9.547008	           -1.079207
            1.257500	          -28.711712	         1272.882853	         -128.144561	           -0.244675	            0.006231	           -0.407785	           -0.195760	            8.678684	           -0.873707	            2.570757	         1369.550114	          156.416204	           -0.268682	            0.005511	           -0.696879	           -0.017609	           -9.381081	           -1.071412
            1.258000	          -31.142292	         1267.837968	         -128.893869	           -0.244287	            0.006232	           -0.407823	           -0.209766	            8.539798	           -0.868193	           -1.061046	         1363.455330	          157.663126	           -0.268069	            0.005513	           -0.697009	            0.007220	           -9.277477	           -1.072801
            1.258500	          -33.251400	         1262.792407	         -129.414696	           -0.243773	            0.006232	           -0.407820	           -0.219329	            8.329467	           -0.853628	           -3.802826	         1357.365009	          158.628117	           -0.267538	            0.005516	           -0.697144	            0.026101	           -9.316254	           -1.088742
            1.259000	          -35.406613	         1259.188718	         -129.929228	           -0.243384	            0.006231	           -0.407537	           -0.227277	            8.082817	           -0.834024	           -6.873925	         1351.641997	          159.500689	           -0.266867	            0.005519	           -0.697345	            0.046741	           -9.190882	           -1.084571
            1.259500	          -36.874230	         1255.225010	         -130.492847	           -0.242986	            0.006230	           -0.407342	           -0.235628	            8.020945	           -0.833855	          -10.227576	         1346.287379	          160.093142	           -0.266261	            0.005522	           -0.697639	            0.068227	           -8.980959	           -1.067967
            1.260000	          -38.799173	         1250.178107	         -130.693150	           -0.242509	            0.006230	           -0.407372	           -0.245579	            7.912978	           -0.827220	          -12.920074	         1339.462505	          160.539253	           -0.265718	            0.005524	           -0.697552	            0.084218	           -8.731087	           -1.046451
            1.260500	          -40.724144	         1246.572693	         -130.795535	           -0.242066	            0.006229	           -0.407150	           -0.259960	            7.957432	           -0.834926	          -15.527532	         1335.031905	          160.946959	           -0.265098	            0.005527	           -0.697863	            0.100541	           -8.644350	           -1.042134
            1.261000	          -42.924043	         1240.984727	         -130.997445	           -0.241659	            0.006230	           -0.407276	           -0.270556	            7.822100	           -0.825695	          -17.807828	         1330.787573	          161.073599	           -0.264565	            0.005530	           -0.698083	            0.115169	           -8.606600	           -1.041711
            1.261500	          -44.344707	         1235.937922	         -131.198999	           -0.241168	            0.006229	           -0.407121	           -0.277086	            7.722701	           -0.819791	          -20.408620	         1324.515521	          161.521672	           -0.264081	            0.005532	           -0.698097	            0.131007	           -8.502300	           -1.036836
            1.262000	          -45.765562	         1232.513220	         -131.347730	           -0.240844	            0.006229	           -0.406957	           -0.278433	            7.498482	           -0.799106	          -22.406926	         1320.086283	          162.163737	           -0.263551	            0.005535	           -0.698401	            0.144965	           -8.540518	           -1.049145
            1.262500	          -46.910272	         1228.185639	         -131.134161	           -0.240316	            0.006228	           -0.406878	           -0.284140	            7.439240	           -0.794292	          -24.309021	         1314.921992	          162.474676	           -0.263005	            0.005537	           -0.698433	            0.155890	           -8.432411	           -1.041927
            1.263000	          -48.146874	         1223.678016	         -131.012842	           -0.239906	            0.006228	           -0.406807	           -0.286475	            7.280921	           -0.779530	          -26.448871	         1310.679248	          162.366609	           -0.262529	            0.005540	           -0.698805	            0.166686	           -8.260175	           -1.023268
            1.263500	          -49.383762	         1219.531622	         -130.981680	           -0.239552	            0.006227	           -0.406621	           -0.294991	            7.284803	           -0.782412	          -27.931288	         1306.068796	          162.726245	           -0.262034	            0.005542	           -0.698913	            0.174590	           -8.163831	           -1.017151
            1.264000	          -50.345434	         1215.745237	         -130.857951	           -0.239175	            0.006227	           -0.406588	           -0.306175	            7.393533	           -0.795810	          -29.883155	         1301.643074	          162.429759	           -0.261583	            0.005544	           -0.698996	            0.184118	           -8.019750	           -1.000771
            1.264500	          -51.398168	         1211.056688	         -130.554452	           -0.238731	            0.006227	           -0.406501	           -0.309263	            7.286926	           -0.785546	          -31.597970	         1296.480465	          162.459004	           -0.261176	            0.005546	           -0.699090	            0.194749	           -7.990629	           -1.001287
            1.265000	          -52.588219	         1207.088708	         -130.109947	           -0.238364	            0.006226	           -0.406286	           -0.312650	            7.176442	           -0.773536	          -33.312000	         1291.132771	          162.769206	           -0.260680	            0.005548	           -0.699122	            0.205703	           -7.972812	           -1.005108
            1.265500	          -53.229184	         1201.861046	         -130.176607	           -0.238078	            0.006227	           -0.406445	           -0.310227	            7.004612	           -0.758687	          -34.421132	         1286.893581	          162.707637	           -0.260326	            0.005550	           -0.699344	            0.214928	           -8.035470	           -1.015960
            1.266000	          -53.961624	         1198.615275	         -130.005292	           -0.237613	            0.006226	           -0.406158	           -0.307756	            6.835983	           -0.741451	          -35.671434	         1282.837385	          162.740654	           -0.259895	            0.005552	           -0.699559	            0.219937	           -7.909500	           -1.003399
            1.266500	          -54.280334	         1194.106303	         -129.473533	           -0.237308	            0.006225	           -0.406068	           -0.311412	            6.850705	           -0.742802	          -36.401738	         1277.494248	          162.768824	           -0.259546	            0.005553	           -0.699585	            0.222346	           -7.803080	           -0.994210
